# Aspose.3D Wavefront OBJ Exporter
# Copyright 2004-2023 Aspose Pty Ltd.
# File created: 05/01/2023 00:25:15


#
# object obj_5017727
#

v 0.00999999977648258 0.00800000037997961 0.00999999977648258
v 0.00999999977648258 -0.00800000037997961 0.00999999977648258
v 0.00999999977648258 0.00800000037997961 -4.89842555177431E-19
v 0.00999999977648258 -0.00800000037997961 4.89842555177431E-19
v -0.00999999977648258 0.00800000037997961 0.00999999977648258
v -0.00999999977648258 0.00800000037997961 -4.89842555177431E-19
v -0.00999999977648258 -0.00800000037997961 0.00999999977648258
v -0.00999999977648258 -0.00800000037997961 4.89842555177431E-19
v 0.0040000001899898 0.0015999999595806 0.00999999977648258
v 0.00171746441628783 -0.00325835915282368 0.00999999977648258
v 0.00205835932865738 -0.00258931540884077 0.00999999977648258
v -0.00541068473830819 -0.00594164058566093 0.00999999977648258
v -0.00594164058566093 -0.00541068473830819 0.00999999977648258
v -0.00628253584727644 0.00474164076149463 0.00999999977648258
v -0.00594164058566093 0.00541068473830819 0.00999999977648258
v 0.00628253584727644 -0.00474164076149463 0.00999999977648258
v 0.00594164058566093 -0.00541068473830819 0.00999999977648258
v 0.00541068473830819 -0.00594164058566093 0.00999999977648258
v 0.00474164076149463 -0.00628253584727644 0.00999999977648258
v -0.00628253584727644 0.00325835915282368 0.00999999977648258
v -0.0063999998383224 0.0040000001899898 0.00999999977648258
v -0.0040000001899898 0.0015999999595806 0.00999999977648258
v -0.00628253584727644 -0.00325835915282368 0.00999999977648258
v -0.00594164058566093 -0.00258931540884077 0.00999999977648258
v 0.00258931540884077 -0.00205835932865738 0.00999999977648258
v 0.00325835915282368 -0.00171746441628783 0.00999999977648258
v 0.00474164076149463 0.00171746441628783 0.00999999977648258
v 0.0040000001899898 -0.0015999999595806 0.00999999977648258
v 0.00541068473830819 0.00205835932865738 0.00999999977648258
v -0.00258931540884077 -0.00594164058566093 0.00999999977648258
v -0.00325835915282368 -0.00628253584727644 0.00999999977648258
v -0.0040000001899898 -0.0063999998383224 0.00999999977648258
v -0.00474164076149463 -0.00628253584727644 0.00999999977648258
v -0.00628253584727644 -0.00474164076149463 0.00999999977648258
v -0.0063999998383224 -0.0040000001899898 0.00999999977648258
v -0.00541068473830819 -0.00205835932865738 0.00999999977648258
v -0.00474164076149463 -0.00171746441628783 0.00999999977648258
v -0.00325835915282368 0.00171746441628783 0.00999999977648258
v -0.0040000001899898 -0.0015999999595806 0.00999999977648258
v -0.00258931540884077 0.00205835932865738 0.00999999977648258
v -0.00205835932865738 0.00258931540884077 0.00999999977648258
v 0.00474164076149463 -0.00171746441628783 0.00999999977648258
v 0.00628253584727644 0.00325835915282368 0.00999999977648258
v 0.00594164058566093 0.00258931540884077 0.00999999977648258
v -0.00474164076149463 0.00171746441628783 0.00999999977648258
v -0.00541068473830819 0.00205835932865738 0.00999999977648258
v -0.00594164058566093 0.00258931540884077 0.00999999977648258
v 0.0040000001899898 -0.0063999998383224 0.00999999977648258
v 0.00325835915282368 -0.00628253584727644 0.00999999977648258
v 0.00258931540884077 -0.00594164058566093 0.00999999977648258
v 0.00205835932865738 -0.00541068473830819 0.00999999977648258
v -0.00541068473830819 0.00594164058566093 0.00999999977648258
v -0.00474164076149463 0.00628253584727644 0.00999999977648258
v -0.0040000001899898 0.0063999998383224 0.00999999977648258
v -0.00171746441628783 0.00325835915282368 0.00999999977648258
v -0.00325835915282368 -0.00171746441628783 0.00999999977648258
v -0.00258931540884077 -0.00205835932865738 0.00999999977648258
v 0.00325835915282368 0.00628253584727644 0.00999999977648258
v 0.0040000001899898 0.0063999998383224 0.00999999977648258
v 0.00474164076149463 0.00628253584727644 0.00999999977648258
v 0.00325835915282368 0.00171746441628783 0.00999999977648258
v 0.00258931540884077 0.00205835932865738 0.00999999977648258
v -0.00171746441628783 -0.00325835915282368 0.00999999977648258
v -0.00258931540884077 0.00594164058566093 0.00999999977648258
v 0.00171746441628783 0.00474164076149463 0.00999999977648258
v 0.00205835932865738 0.00541068473830819 0.00999999977648258
v 0.00541068473830819 0.00594164058566093 0.00999999977648258
v 0.00594164058566093 0.00541068473830819 0.00999999977648258
v 0.00628253584727644 0.00474164076149463 0.00999999977648258
v -0.00325835915282368 0.00628253584727644 0.00999999977648258
v 0.00258931540884077 0.00594164058566093 0.00999999977648258
v 0.0015999999595806 -0.0040000001899898 0.00999999977648258
v -0.0015999999595806 -0.0040000001899898 0.00999999977648258
v 0.00171746441628783 -0.00474164076149463 0.00999999977648258
v -0.00171746441628783 -0.00474164076149463 0.00999999977648258
v -0.00205835932865738 -0.00541068473830819 0.00999999977648258
v -0.00205835932865738 0.00541068473830819 0.00999999977648258
v -0.00171746441628783 0.00474164076149463 0.00999999977648258
v 0.0015999999595806 0.0040000001899898 0.00999999977648258
v -0.0015999999595806 0.0040000001899898 0.00999999977648258
v 0.00171746441628783 0.00325835915282368 0.00999999977648258
v 0.00205835932865738 0.00258931540884077 0.00999999977648258
v -0.00205835932865738 -0.00258931540884077 0.00999999977648258
v 0.00541068473830819 -0.00205835932865738 0.00999999977648258
v 0.0063999998383224 0.0040000001899898 0.00999999977648258
v 0.00594164058566093 -0.00258931540884077 0.00999999977648258
v 0.00628253584727644 -0.00325835915282368 0.00999999977648258
v 0.0063999998383224 -0.0040000001899898 0.00999999977648258
v -0.00325835915282368 0.00628253584727644 0.01169999968260526
v -0.00258931540884077 0.00594164058566093 0.01169999968260526
v -0.00205835932865738 0.00541068473830819 0.01169999968260526
v -0.00171746441628783 0.00474164076149463 0.01169999968260526
v -0.0015999999595806 0.0040000001899898 0.01169999968260526
v -0.00171746441628783 0.00325835915282368 0.01169999968260526
v -0.00205835932865738 0.00258931540884077 0.01169999968260526
v -0.00258931540884077 0.00205835932865738 0.01169999968260526
v -0.00325835915282368 0.00171746441628783 0.01169999968260526
v -0.0040000001899898 0.0015999999595806 0.01169999968260526
v -0.00474164076149463 0.00171746441628783 0.01169999968260526
v -0.00541068473830819 0.00205835932865738 0.01169999968260526
v -0.00594164058566093 0.00258931540884077 0.01169999968260526
v -0.00628253584727644 0.00325835915282368 0.01169999968260526
v -0.0063999998383224 0.0040000001899898 0.01169999968260526
v -0.00628253584727644 0.00474164076149463 0.01169999968260526
v -0.00594164058566093 0.00541068473830819 0.01169999968260526
v -0.00541068473830819 0.00594164058566093 0.01169999968260526
v -0.00474164076149463 0.00628253584727644 0.01169999968260526
v -0.0040000001899898 0.0063999998383224 0.01169999968260526
v -0.0040000001899898 0.0040000001899898 0.01169999968260526
v 0.00474164076149463 0.00628253584727644 0.01169999968260526
v 0.00541068473830819 0.00594164058566093 0.01169999968260526
v 0.00594164058566093 0.00541068473830819 0.01169999968260526
v 0.00628253584727644 0.00474164076149463 0.01169999968260526
v 0.0063999998383224 0.0040000001899898 0.01169999968260526
v 0.00628253584727644 0.00325835915282368 0.01169999968260526
v 0.00594164058566093 0.00258931540884077 0.01169999968260526
v 0.00541068473830819 0.00205835932865738 0.01169999968260526
v 0.00474164076149463 0.00171746441628783 0.01169999968260526
v 0.0040000001899898 0.0015999999595806 0.01169999968260526
v 0.00325835915282368 0.00171746441628783 0.01169999968260526
v 0.00258931540884077 0.00205835932865738 0.01169999968260526
v 0.00205835932865738 0.00258931540884077 0.01169999968260526
v 0.00171746441628783 0.00325835915282368 0.01169999968260526
v 0.0015999999595806 0.0040000001899898 0.01169999968260526
v 0.00171746441628783 0.00474164076149463 0.01169999968260526
v 0.00205835932865738 0.00541068473830819 0.01169999968260526
v 0.00258931540884077 0.00594164058566093 0.01169999968260526
v 0.00325835915282368 0.00628253584727644 0.01169999968260526
v 0.0040000001899898 0.0063999998383224 0.01169999968260526
v 0.0040000001899898 0.0040000001899898 0.01169999968260526
v 0.00474164076149463 -0.00171746441628783 0.01169999968260526
v 0.00541068473830819 -0.00205835932865738 0.01169999968260526
v 0.00594164058566093 -0.00258931540884077 0.01169999968260526
v 0.00628253584727644 -0.00325835915282368 0.01169999968260526
v 0.0063999998383224 -0.0040000001899898 0.01169999968260526
v 0.00628253584727644 -0.00474164076149463 0.01169999968260526
v 0.00594164058566093 -0.00541068473830819 0.01169999968260526
v 0.00541068473830819 -0.00594164058566093 0.01169999968260526
v 0.00474164076149463 -0.00628253584727644 0.01169999968260526
v 0.0040000001899898 -0.0063999998383224 0.01169999968260526
v 0.00325835915282368 -0.00628253584727644 0.01169999968260526
v 0.00258931540884077 -0.00594164058566093 0.01169999968260526
v 0.00205835932865738 -0.00541068473830819 0.01169999968260526
v 0.00171746441628783 -0.00474164076149463 0.01169999968260526
v 0.0015999999595806 -0.0040000001899898 0.01169999968260526
v 0.00171746441628783 -0.00325835915282368 0.01169999968260526
v 0.00205835932865738 -0.00258931540884077 0.01169999968260526
v 0.00258931540884077 -0.00205835932865738 0.01169999968260526
v 0.00325835915282368 -0.00171746441628783 0.01169999968260526
v 0.0040000001899898 -0.0015999999595806 0.01169999968260526
v 0.0040000001899898 -0.0040000001899898 0.01169999968260526
v -0.00325835915282368 -0.00171746441628783 0.01169999968260526
v -0.00258931540884077 -0.00205835932865738 0.01169999968260526
v -0.00205835932865738 -0.00258931540884077 0.01169999968260526
v -0.00171746441628783 -0.00325835915282368 0.01169999968260526
v -0.0015999999595806 -0.0040000001899898 0.01169999968260526
v -0.00171746441628783 -0.00474164076149463 0.01169999968260526
v -0.00205835932865738 -0.00541068473830819 0.01169999968260526
v -0.00258931540884077 -0.00594164058566093 0.01169999968260526
v -0.00325835915282368 -0.00628253584727644 0.01169999968260526
v -0.0040000001899898 -0.0063999998383224 0.01169999968260526
v -0.00474164076149463 -0.00628253584727644 0.01169999968260526
v -0.00541068473830819 -0.00594164058566093 0.01169999968260526
v -0.00594164058566093 -0.00541068473830819 0.01169999968260526
v -0.00628253584727644 -0.00474164076149463 0.01169999968260526
v -0.0063999998383224 -0.0040000001899898 0.01169999968260526
v -0.00628253584727644 -0.00325835915282368 0.01169999968260526
v -0.00594164058566093 -0.00258931540884077 0.01169999968260526
v -0.00541068473830819 -0.00205835932865738 0.01169999968260526
v -0.00474164076149463 -0.00171746441628783 0.01169999968260526
v -0.0040000001899898 -0.0015999999595806 0.01169999968260526
v -0.0040000001899898 -0.0040000001899898 0.01169999968260526
# 172 vertices

vn 1 0 0
vn 0 1 -6.123031769111886E-17
vn -1 0 0
vn 0 -1 6.123031769111886E-17
vn 0 6.123031769111886E-17 1
vn 0 -6.123031769111886E-17 -1
vn 0.15643393993377686 0.987688422203064 -6.047647822039724E-17
vn 0.45399096608161928 0.89100629091262816 -5.4556598039261434E-17
vn 0.70710664987564088 0.70710694789886472 -4.329638357520163E-17
vn 0.8910065293312072 0.45399048924446104 -2.779798020255083E-17
vn 0.9876883029937744 0.15643464028835296 -9.578542216669085E-18
vn 0.9876883029937744 -0.1564345359802246 9.578536426404797E-18
vn 0.89100646972656256 -0.45399060845375064 2.779799012871818E-17
vn 0.7071067690849304 -0.7071067690849304 4.329637364903428E-17
vn 0.45399060845375064 -0.89100646972656256 5.4556607965428785E-17
vn 0.1564345359802246 -0.9876883029937744 6.047647160295234E-17
vn -0.15643464028835296 -0.9876883029937744 6.047647160295234E-17
vn -0.45399048924446104 -0.8910065293312072 5.4556614582873685E-17
vn -0.70710694789886472 -0.70710664987564088 4.329636372286693E-17
vn -0.89100629091262816 -0.45399096608161928 2.7798009981052884E-17
vn -0.987688422203064 -0.15643393993377686 9.578499203277232E-18
vn -0.987688422203064 0.15643402934074402 -9.57850499354152E-18
vn -0.89100635051727296 0.45399084687232968 -2.7798003363607983E-17
vn -0.7071067690849304 0.7071067690849304 -4.329637364903428E-17
vn -0.45399084687232968 0.89100635051727296 -5.4556601347983884E-17
vn -0.15643402934074402 0.987688422203064 -6.047647822039724E-17
vn 0.15643402934074402 0.987688422203064 -6.047647822039724E-17
vn 0.45399084687232968 0.89100635051727296 -5.4556601347983884E-17
vn 0.7071067690849304 0.7071067690849304 -4.329637364903428E-17
vn 0.89100635051727296 0.45399084687232968 -2.7798003363607983E-17
vn 0.987688422203064 0.15643402934074402 -9.57850499354152E-18
vn 0.987688422203064 -0.15643393993377686 9.578499203277232E-18
vn 0.89100629091262816 -0.45399096608161928 2.7798009981052884E-17
vn 0.70710694789886472 -0.70710664987564088 4.329636372286693E-17
vn 0.45399048924446104 -0.8910065293312072 5.4556614582873685E-17
vn 0.15643464028835296 -0.9876883029937744 6.047647160295234E-17
vn -0.1564345359802246 -0.9876883029937744 6.047647160295234E-17
vn -0.45399060845375064 -0.89100646972656256 5.4556607965428785E-17
vn -0.7071067690849304 -0.7071067690849304 4.329637364903428E-17
vn -0.89100646972656256 -0.45399060845375064 2.779799012871818E-17
vn -0.9876883029937744 -0.1564345359802246 9.578536426404797E-18
vn -0.9876883029937744 0.15643464028835296 -9.578542216669085E-18
vn -0.8910065293312072 0.45399048924446104 -2.779798020255083E-17
vn -0.70710664987564088 0.70710694789886472 -4.329638357520163E-17
vn -0.45399096608161928 0.89100629091262816 -5.4556598039261434E-17
vn -0.15643393993377686 0.987688422203064 -6.047647822039724E-17
vn 0.15643464028835296 0.9876883029937744 -6.047647160295234E-17
vn 0.45399048924446104 0.8910065293312072 -5.4556614582873685E-17
vn 0.70710694789886472 0.70710664987564088 -4.329636372286693E-17
vn 0.89100629091262816 0.45399096608161928 -2.7798009981052884E-17
vn 0.987688422203064 0.15643393993377686 -9.578499203277232E-18
vn 0.987688422203064 -0.15643402934074402 9.57850499354152E-18
vn 0.89100635051727296 -0.45399084687232968 2.7798003363607983E-17
vn 0.45399084687232968 -0.89100635051727296 5.4556601347983884E-17
vn 0.15643402934074402 -0.987688422203064 6.047647822039724E-17
vn -0.15643393993377686 -0.987688422203064 6.047647822039724E-17
vn -0.45399096608161928 -0.89100629091262816 5.4556598039261434E-17
vn -0.70710664987564088 -0.70710694789886472 4.329638357520163E-17
vn -0.8910065293312072 -0.45399048924446104 2.779798020255083E-17
vn -0.9876883029937744 -0.15643464028835296 9.578542216669085E-18
vn -0.9876883029937744 0.1564345359802246 -9.578536426404797E-18
vn -0.89100646972656256 0.45399060845375064 -2.779799012871818E-17
vn -0.45399060845375064 0.89100646972656256 -5.4556607965428785E-17
vn -0.1564345359802246 0.9876883029937744 -6.047647160295234E-17
vn 0.1564345359802246 0.9876883029937744 -6.047647160295234E-17
vn 0.45399060845375064 0.89100646972656256 -5.4556607965428785E-17
vn 0.89100646972656256 0.45399060845375064 -2.779799012871818E-17
vn 0.9876883029937744 0.1564345359802246 -9.578536426404797E-18
vn 0.9876883029937744 -0.15643464028835296 9.578542216669085E-18
vn 0.8910065293312072 -0.45399048924446104 2.779798020255083E-17
vn 0.70710664987564088 -0.70710694789886472 4.329638357520163E-17
vn 0.45399096608161928 -0.89100629091262816 5.4556598039261434E-17
vn 0.15643393993377686 -0.987688422203064 6.047647822039724E-17
vn -0.15643402934074402 -0.987688422203064 6.047647822039724E-17
vn -0.45399084687232968 -0.89100635051727296 5.4556601347983884E-17
vn -0.89100635051727296 -0.45399084687232968 2.7798003363607983E-17
vn -0.987688422203064 -0.15643402934074402 9.57850499354152E-18
vn -0.987688422203064 0.15643393993377686 -9.578499203277232E-18
vn -0.89100629091262816 0.45399096608161928 -2.7798009981052884E-17
vn -0.70710694789886472 0.70710664987564088 -4.329636372286693E-17
vn -0.45399048924446104 0.8910065293312072 -5.4556614582873685E-17
vn -0.15643464028835296 0.9876883029937744 -6.047647160295234E-17
# 82 vertex normals

g obj_5017727
s 1
f 1//1 2//1 3//1
f 3//1 2//1 4//1
f 5//2 1//2 6//2
f 6//2 1//2 3//2
f 7//3 5//3 8//3
f 8//3 5//3 6//3
f 2//4 7//4 4//4
f 4//4 7//4 8//4
f 9//5 10//5 11//5
f 12//5 13//5 7//5
f 5//5 14//5 15//5
f 16//5 17//5 2//5
f 2//5 17//5 18//5
f 2//5 18//5 19//5
f 7//5 20//5 5//5
f 5//5 20//5 21//5
f 5//5 21//5 14//5
f 22//5 23//5 24//5
f 11//5 25//5 9//5
f 9//5 25//5 26//5
f 9//5 26//5 27//5
f 27//5 26//5 28//5
f 27//5 28//5 29//5
f 30//5 31//5 2//5
f 2//5 31//5 32//5
f 2//5 32//5 7//5
f 7//5 32//5 33//5
f 7//5 33//5 12//5
f 13//5 34//5 7//5
f 7//5 34//5 35//5
f 7//5 35//5 23//5
f 24//5 36//5 22//5
f 22//5 36//5 37//5
f 22//5 37//5 38//5
f 38//5 37//5 39//5
f 38//5 39//5 40//5
f 40//5 39//5 41//5
f 42//5 43//5 28//5
f 28//5 43//5 44//5
f 28//5 44//5 29//5
f 22//5 45//5 23//5
f 23//5 45//5 46//5
f 23//5 46//5 7//5
f 7//5 46//5 47//5
f 7//5 47//5 20//5
f 19//5 48//5 2//5
f 2//5 48//5 49//5
f 2//5 49//5 30//5
f 30//5 49//5 50//5
f 30//5 50//5 51//5
f 15//5 52//5 5//5
f 5//5 52//5 53//5
f 5//5 53//5 54//5
f 41//5 39//5 55//5
f 55//5 39//5 56//5
f 55//5 56//5 57//5
f 54//5 58//5 5//5
f 5//5 58//5 59//5
f 5//5 59//5 1//5
f 1//5 59//5 60//5
f 61//5 62//5 63//5
f 64//5 65//5 66//5
f 60//5 67//5 1//5
f 1//5 67//5 68//5
f 1//5 68//5 69//5
f 54//5 70//5 58//5
f 58//5 70//5 64//5
f 58//5 64//5 71//5
f 71//5 64//5 66//5
f 9//5 61//5 10//5
f 10//5 61//5 63//5
f 10//5 63//5 72//5
f 72//5 63//5 73//5
f 72//5 73//5 74//5
f 74//5 73//5 75//5
f 74//5 75//5 51//5
f 51//5 75//5 76//5
f 51//5 76//5 30//5
f 64//5 77//5 65//5
f 65//5 77//5 78//5
f 65//5 78//5 79//5
f 79//5 78//5 80//5
f 79//5 80//5 81//5
f 81//5 80//5 55//5
f 81//5 55//5 82//5
f 82//5 55//5 57//5
f 82//5 57//5 62//5
f 62//5 57//5 83//5
f 62//5 83//5 63//5
f 42//5 84//5 43//5
f 43//5 84//5 1//5
f 43//5 1//5 85//5
f 85//5 1//5 69//5
f 84//5 86//5 1//5
f 1//5 86//5 87//5
f 1//5 87//5 2//5
f 2//5 87//5 88//5
f 2//5 88//5 16//5
f 8//6 6//6 4//6
f 4//6 6//6 3//6
f 54//7 89//7 70//7
f 70//8 89//8 90//8
f 70//8 90//8 64//8
f 64//9 90//9 91//9
f 64//9 91//9 77//9
f 77//10 91//10 92//10
f 77//10 92//10 78//10
f 78//11 92//11 93//11
f 78//11 93//11 80//11
f 80//12 93//12 94//12
f 80//12 94//12 55//12
f 55//13 94//13 95//13
f 55//13 95//13 41//13
f 41//14 95//14 96//14
f 41//14 96//14 40//14
f 40//15 96//15 97//15
f 40//15 97//15 38//15
f 38//16 97//16 98//16
f 38//16 98//16 22//16
f 22//17 98//17 99//17
f 22//17 99//17 45//17
f 45//18 99//18 100//18
f 45//18 100//18 46//18
f 46//19 100//19 101//19
f 46//19 101//19 47//19
f 47//20 101//20 102//20
f 47//20 102//20 20//20
f 20//21 102//21 103//21
f 20//21 103//21 21//21
f 21//22 103//22 104//22
f 21//22 104//22 14//22
f 14//23 104//23 105//23
f 14//23 105//23 15//23
f 15//24 105//24 106//24
f 15//24 106//24 52//24
f 52//25 106//25 107//25
f 52//25 107//25 53//25
f 53//26 107//26 108//26
f 53//26 108//26 54//26
f 54//7 108//7 89//7
f 98//5 97//5 109//5
f 98//5 109//5 99//5
f 102//5 101//5 109//5
f 109//5 101//5 100//5
f 109//5 100//5 99//5
f 105//5 104//5 109//5
f 109//5 104//5 103//5
f 109//5 103//5 102//5
f 108//5 107//5 109//5
f 109//5 107//5 106//5
f 109//5 106//5 105//5
f 91//5 90//5 109//5
f 109//5 90//5 89//5
f 109//5 89//5 108//5
f 94//5 93//5 109//5
f 109//5 93//5 92//5
f 109//5 92//5 91//5
f 97//5 96//5 109//5
f 109//5 96//5 95//5
f 109//5 95//5 94//5
f 59//27 110//27 60//27
f 60//28 110//28 111//28
f 60//28 111//28 67//28
f 67//29 111//29 112//29
f 67//29 112//29 68//29
f 68//30 112//30 113//30
f 68//30 113//30 69//30
f 69//31 113//31 114//31
f 69//31 114//31 85//31
f 85//32 114//32 115//32
f 85//32 115//32 43//32
f 43//33 115//33 116//33
f 43//33 116//33 44//33
f 44//34 116//34 117//34
f 44//34 117//34 29//34
f 29//35 117//35 118//35
f 29//35 118//35 27//35
f 27//36 118//36 119//36
f 27//36 119//36 9//36
f 9//37 119//37 120//37
f 9//37 120//37 61//37
f 61//38 120//38 121//38
f 61//38 121//38 62//38
f 62//39 121//39 122//39
f 62//39 122//39 82//39
f 82//40 122//40 123//40
f 82//40 123//40 81//40
f 81//41 123//41 124//41
f 81//41 124//41 79//41
f 79//42 124//42 125//42
f 79//42 125//42 65//42
f 65//43 125//43 126//43
f 65//43 126//43 66//43
f 66//44 126//44 127//44
f 66//44 127//44 71//44
f 71//45 127//45 128//45
f 71//45 128//45 58//45
f 58//46 128//46 129//46
f 58//46 129//46 59//46
f 59//27 129//27 110//27
f 119//5 118//5 130//5
f 119//5 130//5 120//5
f 123//5 122//5 130//5
f 130//5 122//5 121//5
f 130//5 121//5 120//5
f 126//5 125//5 130//5
f 130//5 125//5 124//5
f 130//5 124//5 123//5
f 129//5 128//5 130//5
f 130//5 128//5 127//5
f 130//5 127//5 126//5
f 112//5 111//5 130//5
f 130//5 111//5 110//5
f 130//5 110//5 129//5
f 115//5 114//5 130//5
f 130//5 114//5 113//5
f 130//5 113//5 112//5
f 118//5 117//5 130//5
f 130//5 117//5 116//5
f 130//5 116//5 115//5
f 28//47 131//47 42//47
f 42//48 131//48 132//48
f 42//48 132//48 84//48
f 84//49 132//49 133//49
f 84//49 133//49 86//49
f 86//50 133//50 134//50
f 86//50 134//50 87//50
f 87//51 134//51 135//51
f 87//51 135//51 88//51
f 88//52 135//52 136//52
f 88//52 136//52 16//52
f 16//53 136//53 137//53
f 16//53 137//53 17//53
f 17//14 137//14 138//14
f 17//14 138//14 18//14
f 18//54 138//54 139//54
f 18//54 139//54 19//54
f 19//55 139//55 140//55
f 19//55 140//55 48//55
f 48//56 140//56 141//56
f 48//56 141//56 49//56
f 49//57 141//57 142//57
f 49//57 142//57 50//57
f 50//58 142//58 143//58
f 50//58 143//58 51//58
f 51//59 143//59 144//59
f 51//59 144//59 74//59
f 74//60 144//60 145//60
f 74//60 145//60 72//60
f 72//61 145//61 146//61
f 72//61 146//61 10//61
f 10//62 146//62 147//62
f 10//62 147//62 11//62
f 11//24 147//24 148//24
f 11//24 148//24 25//24
f 25//63 148//63 149//63
f 25//63 149//63 26//63
f 26//64 149//64 150//64
f 26//64 150//64 28//64
f 28//47 150//47 131//47
f 140//5 139//5 151//5
f 140//5 151//5 141//5
f 144//5 143//5 151//5
f 151//5 143//5 142//5
f 151//5 142//5 141//5
f 147//5 146//5 151//5
f 151//5 146//5 145//5
f 151//5 145//5 144//5
f 150//5 149//5 151//5
f 151//5 149//5 148//5
f 151//5 148//5 147//5
f 133//5 132//5 151//5
f 151//5 132//5 131//5
f 151//5 131//5 150//5
f 136//5 135//5 151//5
f 151//5 135//5 134//5
f 151//5 134//5 133//5
f 139//5 138//5 151//5
f 151//5 138//5 137//5
f 151//5 137//5 136//5
f 39//65 152//65 56//65
f 56//66 152//66 153//66
f 56//66 153//66 57//66
f 57//29 153//29 154//29
f 57//29 154//29 83//29
f 83//67 154//67 155//67
f 83//67 155//67 63//67
f 63//68 155//68 156//68
f 63//68 156//68 73//68
f 73//69 156//69 157//69
f 73//69 157//69 75//69
f 75//70 157//70 158//70
f 75//70 158//70 76//70
f 76//71 158//71 159//71
f 76//71 159//71 30//71
f 30//72 159//72 160//72
f 30//72 160//72 31//72
f 31//73 160//73 161//73
f 31//73 161//73 32//73
f 32//74 161//74 162//74
f 32//74 162//74 33//74
f 33//75 162//75 163//75
f 33//75 163//75 12//75
f 12//39 163//39 164//39
f 12//39 164//39 13//39
f 13//76 164//76 165//76
f 13//76 165//76 34//76
f 34//77 165//77 166//77
f 34//77 166//77 35//77
f 35//78 166//78 167//78
f 35//78 167//78 23//78
f 23//79 167//79 168//79
f 23//79 168//79 24//79
f 24//80 168//80 169//80
f 24//80 169//80 36//80
f 36//81 169//81 170//81
f 36//81 170//81 37//81
f 37//82 170//82 171//82
f 37//82 171//82 39//82
f 39//65 171//65 152//65
f 161//5 160//5 172//5
f 161//5 172//5 162//5
f 165//5 164//5 172//5
f 172//5 164//5 163//5
f 172//5 163//5 162//5
f 168//5 167//5 172//5
f 172//5 167//5 166//5
f 172//5 166//5 165//5
f 171//5 170//5 172//5
f 172//5 170//5 169//5
f 172//5 169//5 168//5
f 154//5 153//5 172//5
f 172//5 153//5 152//5
f 172//5 152//5 171//5
f 157//5 156//5 172//5
f 172//5 156//5 155//5
f 172//5 155//5 154//5
f 160//5 159//5 172//5
f 172//5 159//5 158//5
f 172//5 158//5 157//5
#340 polygons

