# Aspose.3D Wavefront OBJ Exporter
# Copyright 2004-2023 Aspose Pty Ltd.
# File created: 05/01/2023 00:23:08


#
# object obj_42739251
#

v 0.00800000037997961 0.00800000037997961 0.00999999977648258
v 0.00800000037997961 -0.00800000037997961 0.00999999977648258
v 0.00800000037997961 0.00800000037997961 -4.89842555177431E-19
v 0.00800000037997961 -0.00800000037997961 4.89842555177431E-19
v -0.00800000037997961 0.00800000037997961 0.00999999977648258
v -0.00800000037997961 0.00800000037997961 -4.89842555177431E-19
v -0.00800000037997961 -0.00800000037997961 0.00999999977648258
v -0.00800000037997961 -0.00800000037997961 4.89842555177431E-19
v 0.0040000001899898 0.0015999999595806 0.00999999977648258
v 0.00171746441628783 -0.00325835915282368 0.00999999977648258
v 0.00205835932865738 -0.00258931540884077 0.00999999977648258
v -0.00541068473830819 -0.00594164058566093 0.00999999977648258
v -0.00594164058566093 -0.00541068473830819 0.00999999977648258
v 0.00594164058566093 -0.00541068473830819 0.00999999977648258
v 0.00541068473830819 -0.00594164058566093 0.00999999977648258
v 0.00474164076149463 -0.00628253584727644 0.00999999977648258
v -0.00594164058566093 0.00258931540884077 0.00999999977648258
v -0.00628253584727644 0.00325835915282368 0.00999999977648258
v -0.0063999998383224 0.0040000001899898 0.00999999977648258
v -0.00628253584727644 0.00474164076149463 0.00999999977648258
v -0.00594164058566093 0.00541068473830819 0.00999999977648258
v -0.00541068473830819 0.00594164058566093 0.00999999977648258
v -0.00474164076149463 0.00628253584727644 0.00999999977648258
v 0.00258931540884077 -0.00205835932865738 0.00999999977648258
v 0.00325835915282368 -0.00171746441628783 0.00999999977648258
v 0.00474164076149463 0.00171746441628783 0.00999999977648258
v 0.0040000001899898 -0.0015999999595806 0.00999999977648258
v 0.00541068473830819 0.00205835932865738 0.00999999977648258
v -0.00628253584727644 -0.00474164076149463 0.00999999977648258
v -0.0063999998383224 -0.0040000001899898 0.00999999977648258
v -0.00628253584727644 -0.00325835915282368 0.00999999977648258
v -0.00258931540884077 -0.00594164058566093 0.00999999977648258
v -0.00325835915282368 -0.00628253584727644 0.00999999977648258
v -0.0040000001899898 -0.0063999998383224 0.00999999977648258
v -0.00474164076149463 -0.00628253584727644 0.00999999977648258
v -0.00594164058566093 -0.00258931540884077 0.00999999977648258
v -0.0040000001899898 0.0015999999595806 0.00999999977648258
v -0.00474164076149463 0.00171746441628783 0.00999999977648258
v -0.00541068473830819 0.00205835932865738 0.00999999977648258
v -0.00541068473830819 -0.00205835932865738 0.00999999977648258
v -0.00474164076149463 -0.00171746441628783 0.00999999977648258
v -0.00325835915282368 0.00171746441628783 0.00999999977648258
v -0.0040000001899898 -0.0015999999595806 0.00999999977648258
v -0.00258931540884077 0.00205835932865738 0.00999999977648258
v -0.00205835932865738 0.00258931540884077 0.00999999977648258
v 0.0040000001899898 -0.0063999998383224 0.00999999977648258
v 0.00325835915282368 -0.00628253584727644 0.00999999977648258
v 0.00258931540884077 -0.00594164058566093 0.00999999977648258
v 0.00205835932865738 -0.00541068473830819 0.00999999977648258
v -0.00171746441628783 0.00325835915282368 0.00999999977648258
v -0.00325835915282368 -0.00171746441628783 0.00999999977648258
v -0.00258931540884077 -0.00205835932865738 0.00999999977648258
v 0.00541068473830819 -0.00205835932865738 0.00999999977648258
v 0.00594164058566093 -0.00258931540884077 0.00999999977648258
v 0.0040000001899898 0.0063999998383224 0.00999999977648258
v 0.00325835915282368 0.00628253584727644 0.00999999977648258
v 0.00474164076149463 0.00628253584727644 0.00999999977648258
v 0.00541068473830819 0.00594164058566093 0.00999999977648258
v 0.00594164058566093 0.00541068473830819 0.00999999977648258
v 0.00325835915282368 0.00171746441628783 0.00999999977648258
v 0.00258931540884077 0.00205835932865738 0.00999999977648258
v -0.00171746441628783 -0.00325835915282368 0.00999999977648258
v -0.00258931540884077 0.00594164058566093 0.00999999977648258
v 0.00171746441628783 0.00474164076149463 0.00999999977648258
v 0.00205835932865738 0.00541068473830819 0.00999999977648258
v 0.00628253584727644 -0.00325835915282368 0.00999999977648258
v 0.0063999998383224 -0.0040000001899898 0.00999999977648258
v 0.00628253584727644 -0.00474164076149463 0.00999999977648258
v -0.0040000001899898 0.0063999998383224 0.00999999977648258
v -0.00325835915282368 0.00628253584727644 0.00999999977648258
v 0.00258931540884077 0.00594164058566093 0.00999999977648258
v 0.00628253584727644 0.00474164076149463 0.00999999977648258
v 0.0063999998383224 0.0040000001899898 0.00999999977648258
v 0.00628253584727644 0.00325835915282368 0.00999999977648258
v 0.0015999999595806 -0.0040000001899898 0.00999999977648258
v -0.0015999999595806 -0.0040000001899898 0.00999999977648258
v 0.00171746441628783 -0.00474164076149463 0.00999999977648258
v -0.00171746441628783 -0.00474164076149463 0.00999999977648258
v -0.00205835932865738 -0.00541068473830819 0.00999999977648258
v -0.00205835932865738 0.00541068473830819 0.00999999977648258
v -0.00171746441628783 0.00474164076149463 0.00999999977648258
v 0.0015999999595806 0.0040000001899898 0.00999999977648258
v -0.0015999999595806 0.0040000001899898 0.00999999977648258
v 0.00171746441628783 0.00325835915282368 0.00999999977648258
v 0.00205835932865738 0.00258931540884077 0.00999999977648258
v -0.00205835932865738 -0.00258931540884077 0.00999999977648258
v 0.00474164076149463 -0.00171746441628783 0.00999999977648258
v 0.00594164058566093 0.00258931540884077 0.00999999977648258
v -0.00325835915282368 0.00628253584727644 0.01169999968260526
v -0.00258931540884077 0.00594164058566093 0.01169999968260526
v -0.00205835932865738 0.00541068473830819 0.01169999968260526
v -0.00171746441628783 0.00474164076149463 0.01169999968260526
v -0.0015999999595806 0.0040000001899898 0.01169999968260526
v -0.00171746441628783 0.00325835915282368 0.01169999968260526
v -0.00205835932865738 0.00258931540884077 0.01169999968260526
v -0.00258931540884077 0.00205835932865738 0.01169999968260526
v -0.00325835915282368 0.00171746441628783 0.01169999968260526
v -0.0040000001899898 0.0015999999595806 0.01169999968260526
v -0.00474164076149463 0.00171746441628783 0.01169999968260526
v -0.00541068473830819 0.00205835932865738 0.01169999968260526
v -0.00594164058566093 0.00258931540884077 0.01169999968260526
v -0.00628253584727644 0.00325835915282368 0.01169999968260526
v -0.0063999998383224 0.0040000001899898 0.01169999968260526
v -0.00628253584727644 0.00474164076149463 0.01169999968260526
v -0.00594164058566093 0.00541068473830819 0.01169999968260526
v -0.00541068473830819 0.00594164058566093 0.01169999968260526
v -0.00474164076149463 0.00628253584727644 0.01169999968260526
v -0.0040000001899898 0.0063999998383224 0.01169999968260526
v -0.0040000001899898 0.0040000001899898 0.01169999968260526
v 0.00474164076149463 0.00628253584727644 0.01169999968260526
v 0.00541068473830819 0.00594164058566093 0.01169999968260526
v 0.00594164058566093 0.00541068473830819 0.01169999968260526
v 0.00628253584727644 0.00474164076149463 0.01169999968260526
v 0.0063999998383224 0.0040000001899898 0.01169999968260526
v 0.00628253584727644 0.00325835915282368 0.01169999968260526
v 0.00594164058566093 0.00258931540884077 0.01169999968260526
v 0.00541068473830819 0.00205835932865738 0.01169999968260526
v 0.00474164076149463 0.00171746441628783 0.01169999968260526
v 0.0040000001899898 0.0015999999595806 0.01169999968260526
v 0.00325835915282368 0.00171746441628783 0.01169999968260526
v 0.00258931540884077 0.00205835932865738 0.01169999968260526
v 0.00205835932865738 0.00258931540884077 0.01169999968260526
v 0.00171746441628783 0.00325835915282368 0.01169999968260526
v 0.0015999999595806 0.0040000001899898 0.01169999968260526
v 0.00171746441628783 0.00474164076149463 0.01169999968260526
v 0.00205835932865738 0.00541068473830819 0.01169999968260526
v 0.00258931540884077 0.00594164058566093 0.01169999968260526
v 0.00325835915282368 0.00628253584727644 0.01169999968260526
v 0.0040000001899898 0.0063999998383224 0.01169999968260526
v 0.0040000001899898 0.0040000001899898 0.01169999968260526
v 0.00474164076149463 -0.00171746441628783 0.01169999968260526
v 0.00541068473830819 -0.00205835932865738 0.01169999968260526
v 0.00594164058566093 -0.00258931540884077 0.01169999968260526
v 0.00628253584727644 -0.00325835915282368 0.01169999968260526
v 0.0063999998383224 -0.0040000001899898 0.01169999968260526
v 0.00628253584727644 -0.00474164076149463 0.01169999968260526
v 0.00594164058566093 -0.00541068473830819 0.01169999968260526
v 0.00541068473830819 -0.00594164058566093 0.01169999968260526
v 0.00474164076149463 -0.00628253584727644 0.01169999968260526
v 0.0040000001899898 -0.0063999998383224 0.01169999968260526
v 0.00325835915282368 -0.00628253584727644 0.01169999968260526
v 0.00258931540884077 -0.00594164058566093 0.01169999968260526
v 0.00205835932865738 -0.00541068473830819 0.01169999968260526
v 0.00171746441628783 -0.00474164076149463 0.01169999968260526
v 0.0015999999595806 -0.0040000001899898 0.01169999968260526
v 0.00171746441628783 -0.00325835915282368 0.01169999968260526
v 0.00205835932865738 -0.00258931540884077 0.01169999968260526
v 0.00258931540884077 -0.00205835932865738 0.01169999968260526
v 0.00325835915282368 -0.00171746441628783 0.01169999968260526
v 0.0040000001899898 -0.0015999999595806 0.01169999968260526
v 0.0040000001899898 -0.0040000001899898 0.01169999968260526
v -0.00325835915282368 -0.00171746441628783 0.01169999968260526
v -0.00258931540884077 -0.00205835932865738 0.01169999968260526
v -0.00205835932865738 -0.00258931540884077 0.01169999968260526
v -0.00171746441628783 -0.00325835915282368 0.01169999968260526
v -0.0015999999595806 -0.0040000001899898 0.01169999968260526
v -0.00171746441628783 -0.00474164076149463 0.01169999968260526
v -0.00205835932865738 -0.00541068473830819 0.01169999968260526
v -0.00258931540884077 -0.00594164058566093 0.01169999968260526
v -0.00325835915282368 -0.00628253584727644 0.01169999968260526
v -0.0040000001899898 -0.0063999998383224 0.01169999968260526
v -0.00474164076149463 -0.00628253584727644 0.01169999968260526
v -0.00541068473830819 -0.00594164058566093 0.01169999968260526
v -0.00594164058566093 -0.00541068473830819 0.01169999968260526
v -0.00628253584727644 -0.00474164076149463 0.01169999968260526
v -0.0063999998383224 -0.0040000001899898 0.01169999968260526
v -0.00628253584727644 -0.00325835915282368 0.01169999968260526
v -0.00594164058566093 -0.00258931540884077 0.01169999968260526
v -0.00541068473830819 -0.00205835932865738 0.01169999968260526
v -0.00474164076149463 -0.00171746441628783 0.01169999968260526
v -0.0040000001899898 -0.0015999999595806 0.01169999968260526
v -0.0040000001899898 -0.0040000001899898 0.01169999968260526
# 172 vertices

vn 1 0 0
vn 0 1 -6.123031769111886E-17
vn -1 0 0
vn 0 -1 6.123031769111886E-17
vn 0 6.123031769111886E-17 1
vn 0 -6.123031769111886E-17 -1
vn 0.15643393993377686 0.987688422203064 -6.047647822039724E-17
vn 0.45399096608161928 0.89100629091262816 -5.4556598039261434E-17
vn 0.70710664987564088 0.70710694789886472 -4.329638357520163E-17
vn 0.8910065293312072 0.45399048924446104 -2.779798020255083E-17
vn 0.9876883029937744 0.15643464028835296 -9.578542216669085E-18
vn 0.9876883029937744 -0.1564345359802246 9.578536426404797E-18
vn 0.89100646972656256 -0.45399060845375064 2.779799012871818E-17
vn 0.7071067690849304 -0.7071067690849304 4.329637364903428E-17
vn 0.45399060845375064 -0.89100646972656256 5.4556607965428785E-17
vn 0.1564345359802246 -0.9876883029937744 6.047647160295234E-17
vn -0.15643464028835296 -0.9876883029937744 6.047647160295234E-17
vn -0.45399048924446104 -0.8910065293312072 5.4556614582873685E-17
vn -0.70710694789886472 -0.70710664987564088 4.329636372286693E-17
vn -0.89100629091262816 -0.45399096608161928 2.7798009981052884E-17
vn -0.987688422203064 -0.15643393993377686 9.578499203277232E-18
vn -0.987688422203064 0.15643402934074402 -9.57850499354152E-18
vn -0.89100635051727296 0.45399084687232968 -2.7798003363607983E-17
vn -0.7071067690849304 0.7071067690849304 -4.329637364903428E-17
vn -0.45399084687232968 0.89100635051727296 -5.4556601347983884E-17
vn -0.15643402934074402 0.987688422203064 -6.047647822039724E-17
vn 0.15643402934074402 0.987688422203064 -6.047647822039724E-17
vn 0.45399084687232968 0.89100635051727296 -5.4556601347983884E-17
vn 0.7071067690849304 0.7071067690849304 -4.329637364903428E-17
vn 0.89100635051727296 0.45399084687232968 -2.7798003363607983E-17
vn 0.987688422203064 0.15643402934074402 -9.57850499354152E-18
vn 0.987688422203064 -0.15643393993377686 9.578499203277232E-18
vn 0.89100629091262816 -0.45399096608161928 2.7798009981052884E-17
vn 0.70710694789886472 -0.70710664987564088 4.329636372286693E-17
vn 0.45399048924446104 -0.8910065293312072 5.4556614582873685E-17
vn 0.15643464028835296 -0.9876883029937744 6.047647160295234E-17
vn -0.1564345359802246 -0.9876883029937744 6.047647160295234E-17
vn -0.45399060845375064 -0.89100646972656256 5.4556607965428785E-17
vn -0.7071067690849304 -0.7071067690849304 4.329637364903428E-17
vn -0.89100646972656256 -0.45399060845375064 2.779799012871818E-17
vn -0.9876883029937744 -0.1564345359802246 9.578536426404797E-18
vn -0.9876883029937744 0.15643464028835296 -9.578542216669085E-18
vn -0.8910065293312072 0.45399048924446104 -2.779798020255083E-17
vn -0.70710664987564088 0.70710694789886472 -4.329638357520163E-17
vn -0.45399096608161928 0.89100629091262816 -5.4556598039261434E-17
vn -0.15643393993377686 0.987688422203064 -6.047647822039724E-17
vn 0.15643464028835296 0.9876883029937744 -6.047647160295234E-17
vn 0.45399048924446104 0.8910065293312072 -5.4556614582873685E-17
vn 0.70710694789886472 0.70710664987564088 -4.329636372286693E-17
vn 0.89100629091262816 0.45399096608161928 -2.7798009981052884E-17
vn 0.987688422203064 0.15643393993377686 -9.578499203277232E-18
vn 0.987688422203064 -0.15643402934074402 9.57850499354152E-18
vn 0.89100635051727296 -0.45399084687232968 2.7798003363607983E-17
vn 0.45399084687232968 -0.89100635051727296 5.4556601347983884E-17
vn 0.15643402934074402 -0.987688422203064 6.047647822039724E-17
vn -0.15643393993377686 -0.987688422203064 6.047647822039724E-17
vn -0.45399096608161928 -0.89100629091262816 5.4556598039261434E-17
vn -0.70710664987564088 -0.70710694789886472 4.329638357520163E-17
vn -0.8910065293312072 -0.45399048924446104 2.779798020255083E-17
vn -0.9876883029937744 -0.15643464028835296 9.578542216669085E-18
vn -0.9876883029937744 0.1564345359802246 -9.578536426404797E-18
vn -0.89100646972656256 0.45399060845375064 -2.779799012871818E-17
vn -0.45399060845375064 0.89100646972656256 -5.4556607965428785E-17
vn -0.1564345359802246 0.9876883029937744 -6.047647160295234E-17
vn 0.1564345359802246 0.9876883029937744 -6.047647160295234E-17
vn 0.45399060845375064 0.89100646972656256 -5.4556607965428785E-17
vn 0.89100646972656256 0.45399060845375064 -2.779799012871818E-17
vn 0.9876883029937744 0.1564345359802246 -9.578536426404797E-18
vn 0.9876883029937744 -0.15643464028835296 9.578542216669085E-18
vn 0.8910065293312072 -0.45399048924446104 2.779798020255083E-17
vn 0.70710664987564088 -0.70710694789886472 4.329638357520163E-17
vn 0.45399096608161928 -0.89100629091262816 5.4556598039261434E-17
vn 0.15643393993377686 -0.987688422203064 6.047647822039724E-17
vn -0.15643402934074402 -0.987688422203064 6.047647822039724E-17
vn -0.45399084687232968 -0.89100635051727296 5.4556601347983884E-17
vn -0.89100635051727296 -0.45399084687232968 2.7798003363607983E-17
vn -0.987688422203064 -0.15643402934074402 9.57850499354152E-18
vn -0.987688422203064 0.15643393993377686 -9.578499203277232E-18
vn -0.89100629091262816 0.45399096608161928 -2.7798009981052884E-17
vn -0.70710694789886472 0.70710664987564088 -4.329636372286693E-17
vn -0.45399048924446104 0.8910065293312072 -5.4556614582873685E-17
vn -0.15643464028835296 0.9876883029937744 -6.047647160295234E-17
# 82 vertex normals

g obj_42739251
s 1
f 1//1 2//1 3//1
f 3//1 2//1 4//1
f 5//2 1//2 6//2
f 6//2 1//2 3//2
f 7//3 5//3 8//3
f 8//3 5//3 6//3
f 2//4 7//4 4//4
f 4//4 7//4 8//4
f 9//5 10//5 11//5
f 12//5 13//5 7//5
f 14//5 15//5 2//5
f 2//5 15//5 16//5
f 17//5 18//5 7//5
f 7//5 18//5 19//5
f 7//5 19//5 5//5
f 5//5 19//5 20//5
f 20//5 21//5 5//5
f 5//5 21//5 22//5
f 5//5 22//5 23//5
f 11//5 24//5 9//5
f 9//5 24//5 25//5
f 9//5 25//5 26//5
f 26//5 25//5 27//5
f 26//5 27//5 28//5
f 13//5 29//5 7//5
f 7//5 29//5 30//5
f 7//5 30//5 31//5
f 32//5 33//5 2//5
f 2//5 33//5 34//5
f 2//5 34//5 7//5
f 7//5 34//5 35//5
f 7//5 35//5 12//5
f 36//5 37//5 31//5
f 31//5 37//5 38//5
f 31//5 38//5 7//5
f 7//5 38//5 39//5
f 7//5 39//5 17//5
f 36//5 40//5 37//5
f 37//5 40//5 41//5
f 37//5 41//5 42//5
f 42//5 41//5 43//5
f 42//5 43//5 44//5
f 44//5 43//5 45//5
f 16//5 46//5 2//5
f 2//5 46//5 47//5
f 2//5 47//5 32//5
f 32//5 47//5 48//5
f 32//5 48//5 49//5
f 45//5 43//5 50//5
f 50//5 43//5 51//5
f 50//5 51//5 52//5
f 1//5 53//5 54//5
f 1//5 5//5 55//5
f 55//5 5//5 56//5
f 55//5 57//5 1//5
f 1//5 57//5 58//5
f 1//5 58//5 59//5
f 60//5 61//5 62//5
f 63//5 64//5 65//5
f 54//5 66//5 1//5
f 1//5 66//5 67//5
f 1//5 67//5 2//5
f 2//5 67//5 68//5
f 2//5 68//5 14//5
f 23//5 69//5 5//5
f 5//5 69//5 70//5
f 5//5 70//5 56//5
f 56//5 70//5 63//5
f 56//5 63//5 71//5
f 71//5 63//5 65//5
f 59//5 72//5 1//5
f 1//5 72//5 73//5
f 1//5 73//5 74//5
f 9//5 60//5 10//5
f 10//5 60//5 62//5
f 10//5 62//5 75//5
f 75//5 62//5 76//5
f 75//5 76//5 77//5
f 77//5 76//5 78//5
f 77//5 78//5 49//5
f 49//5 78//5 79//5
f 49//5 79//5 32//5
f 63//5 80//5 64//5
f 64//5 80//5 81//5
f 64//5 81//5 82//5
f 82//5 81//5 83//5
f 82//5 83//5 84//5
f 84//5 83//5 50//5
f 84//5 50//5 85//5
f 85//5 50//5 52//5
f 85//5 52//5 61//5
f 61//5 52//5 86//5
f 61//5 86//5 62//5
f 53//5 1//5 87//5
f 87//5 1//5 74//5
f 87//5 74//5 27//5
f 27//5 74//5 88//5
f 27//5 88//5 28//5
f 8//6 6//6 4//6
f 4//6 6//6 3//6
f 69//7 89//7 70//7
f 70//8 89//8 90//8
f 70//8 90//8 63//8
f 63//9 90//9 91//9
f 63//9 91//9 80//9
f 80//10 91//10 92//10
f 80//10 92//10 81//10
f 81//11 92//11 93//11
f 81//11 93//11 83//11
f 83//12 93//12 94//12
f 83//12 94//12 50//12
f 50//13 94//13 95//13
f 50//13 95//13 45//13
f 45//14 95//14 96//14
f 45//14 96//14 44//14
f 44//15 96//15 97//15
f 44//15 97//15 42//15
f 42//16 97//16 98//16
f 42//16 98//16 37//16
f 37//17 98//17 99//17
f 37//17 99//17 38//17
f 38//18 99//18 100//18
f 38//18 100//18 39//18
f 39//19 100//19 101//19
f 39//19 101//19 17//19
f 17//20 101//20 102//20
f 17//20 102//20 18//20
f 18//21 102//21 103//21
f 18//21 103//21 19//21
f 19//22 103//22 104//22
f 19//22 104//22 20//22
f 20//23 104//23 105//23
f 20//23 105//23 21//23
f 21//24 105//24 106//24
f 21//24 106//24 22//24
f 22//25 106//25 107//25
f 22//25 107//25 23//25
f 23//26 107//26 108//26
f 23//26 108//26 69//26
f 69//7 108//7 89//7
f 98//5 97//5 109//5
f 98//5 109//5 99//5
f 102//5 101//5 109//5
f 109//5 101//5 100//5
f 109//5 100//5 99//5
f 105//5 104//5 109//5
f 109//5 104//5 103//5
f 109//5 103//5 102//5
f 108//5 107//5 109//5
f 109//5 107//5 106//5
f 109//5 106//5 105//5
f 91//5 90//5 109//5
f 109//5 90//5 89//5
f 109//5 89//5 108//5
f 94//5 93//5 109//5
f 109//5 93//5 92//5
f 109//5 92//5 91//5
f 97//5 96//5 109//5
f 109//5 96//5 95//5
f 109//5 95//5 94//5
f 55//27 110//27 57//27
f 57//28 110//28 111//28
f 57//28 111//28 58//28
f 58//29 111//29 112//29
f 58//29 112//29 59//29
f 59//30 112//30 113//30
f 59//30 113//30 72//30
f 72//31 113//31 114//31
f 72//31 114//31 73//31
f 73//32 114//32 115//32
f 73//32 115//32 74//32
f 74//33 115//33 116//33
f 74//33 116//33 88//33
f 88//34 116//34 117//34
f 88//34 117//34 28//34
f 28//35 117//35 118//35
f 28//35 118//35 26//35
f 26//36 118//36 119//36
f 26//36 119//36 9//36
f 9//37 119//37 120//37
f 9//37 120//37 60//37
f 60//38 120//38 121//38
f 60//38 121//38 61//38
f 61//39 121//39 122//39
f 61//39 122//39 85//39
f 85//40 122//40 123//40
f 85//40 123//40 84//40
f 84//41 123//41 124//41
f 84//41 124//41 82//41
f 82//42 124//42 125//42
f 82//42 125//42 64//42
f 64//43 125//43 126//43
f 64//43 126//43 65//43
f 65//44 126//44 127//44
f 65//44 127//44 71//44
f 71//45 127//45 128//45
f 71//45 128//45 56//45
f 56//46 128//46 129//46
f 56//46 129//46 55//46
f 55//27 129//27 110//27
f 119//5 118//5 130//5
f 119//5 130//5 120//5
f 123//5 122//5 130//5
f 130//5 122//5 121//5
f 130//5 121//5 120//5
f 126//5 125//5 130//5
f 130//5 125//5 124//5
f 130//5 124//5 123//5
f 129//5 128//5 130//5
f 130//5 128//5 127//5
f 130//5 127//5 126//5
f 112//5 111//5 130//5
f 130//5 111//5 110//5
f 130//5 110//5 129//5
f 115//5 114//5 130//5
f 130//5 114//5 113//5
f 130//5 113//5 112//5
f 118//5 117//5 130//5
f 130//5 117//5 116//5
f 130//5 116//5 115//5
f 27//47 131//47 87//47
f 87//48 131//48 132//48
f 87//48 132//48 53//48
f 53//49 132//49 133//49
f 53//49 133//49 54//49
f 54//50 133//50 134//50
f 54//50 134//50 66//50
f 66//51 134//51 135//51
f 66//51 135//51 67//51
f 67//52 135//52 136//52
f 67//52 136//52 68//52
f 68//53 136//53 137//53
f 68//53 137//53 14//53
f 14//14 137//14 138//14
f 14//14 138//14 15//14
f 15//54 138//54 139//54
f 15//54 139//54 16//54
f 16//55 139//55 140//55
f 16//55 140//55 46//55
f 46//56 140//56 141//56
f 46//56 141//56 47//56
f 47//57 141//57 142//57
f 47//57 142//57 48//57
f 48//58 142//58 143//58
f 48//58 143//58 49//58
f 49//59 143//59 144//59
f 49//59 144//59 77//59
f 77//60 144//60 145//60
f 77//60 145//60 75//60
f 75//61 145//61 146//61
f 75//61 146//61 10//61
f 10//62 146//62 147//62
f 10//62 147//62 11//62
f 11//24 147//24 148//24
f 11//24 148//24 24//24
f 24//63 148//63 149//63
f 24//63 149//63 25//63
f 25//64 149//64 150//64
f 25//64 150//64 27//64
f 27//47 150//47 131//47
f 140//5 139//5 151//5
f 140//5 151//5 141//5
f 144//5 143//5 151//5
f 151//5 143//5 142//5
f 151//5 142//5 141//5
f 147//5 146//5 151//5
f 151//5 146//5 145//5
f 151//5 145//5 144//5
f 150//5 149//5 151//5
f 151//5 149//5 148//5
f 151//5 148//5 147//5
f 133//5 132//5 151//5
f 151//5 132//5 131//5
f 151//5 131//5 150//5
f 136//5 135//5 151//5
f 151//5 135//5 134//5
f 151//5 134//5 133//5
f 139//5 138//5 151//5
f 151//5 138//5 137//5
f 151//5 137//5 136//5
f 43//65 152//65 51//65
f 51//66 152//66 153//66
f 51//66 153//66 52//66
f 52//29 153//29 154//29
f 52//29 154//29 86//29
f 86//67 154//67 155//67
f 86//67 155//67 62//67
f 62//68 155//68 156//68
f 62//68 156//68 76//68
f 76//69 156//69 157//69
f 76//69 157//69 78//69
f 78//70 157//70 158//70
f 78//70 158//70 79//70
f 79//71 158//71 159//71
f 79//71 159//71 32//71
f 32//72 159//72 160//72
f 32//72 160//72 33//72
f 33//73 160//73 161//73
f 33//73 161//73 34//73
f 34//74 161//74 162//74
f 34//74 162//74 35//74
f 35//75 162//75 163//75
f 35//75 163//75 12//75
f 12//39 163//39 164//39
f 12//39 164//39 13//39
f 13//76 164//76 165//76
f 13//76 165//76 29//76
f 29//77 165//77 166//77
f 29//77 166//77 30//77
f 30//78 166//78 167//78
f 30//78 167//78 31//78
f 31//79 167//79 168//79
f 31//79 168//79 36//79
f 36//80 168//80 169//80
f 36//80 169//80 40//80
f 40//81 169//81 170//81
f 40//81 170//81 41//81
f 41//82 170//82 171//82
f 41//82 171//82 43//82
f 43//65 171//65 152//65
f 161//5 160//5 172//5
f 161//5 172//5 162//5
f 165//5 164//5 172//5
f 172//5 164//5 163//5
f 172//5 163//5 162//5
f 168//5 167//5 172//5
f 172//5 167//5 166//5
f 172//5 166//5 165//5
f 171//5 170//5 172//5
f 172//5 170//5 169//5
f 172//5 169//5 168//5
f 154//5 153//5 172//5
f 172//5 153//5 152//5
f 172//5 152//5 171//5
f 157//5 156//5 172//5
f 172//5 156//5 155//5
f 172//5 155//5 154//5
f 160//5 159//5 172//5
f 172//5 159//5 158//5
f 172//5 158//5 157//5
#340 polygons

